<svg width="42" height="42" viewBox="0 0 42 42" fill="none" xmlns="http://www.w3.org/2000/svg">
<!-- Embedded Interface/GUI Icon - Monitor with interface elements -->
<path opacity="0.15" fill-rule="evenodd" clip-rule="evenodd" d="M5 6H37V30H5V6ZM8 10H34V26H8V10Z" fill="url(#paint0_linear_gui)"/>
<rect x="5" y="6" width="32" height="24" rx="2" stroke="url(#paint1_linear_gui)" stroke-width="1.5"/>
<!-- Screen content - interface elements -->
<rect x="8" y="10" width="10" height="3" rx="1" fill="url(#paint2_linear_gui)"/>
<rect x="8" y="15" width="26" height="2" rx="0.5" fill="url(#paint3_linear_gui)" opacity="0.6"/>
<rect x="8" y="19" width="20" height="2" rx="0.5" fill="url(#paint4_linear_gui)" opacity="0.6"/>
<rect x="8" y="23" width="8" height="3" rx="1" fill="url(#paint5_linear_gui)"/>
<!-- Stand -->
<path d="M18 30V35" stroke="url(#paint6_linear_gui)" stroke-width="1.5"/>
<path d="M24 30V35" stroke="url(#paint7_linear_gui)" stroke-width="1.5"/>
<path d="M14 35H28" stroke="url(#paint8_linear_gui)" stroke-width="1.5" stroke-linecap="round"/>
<defs>
<linearGradient id="paint0_linear_gui" x1="5" y1="6" x2="37" y2="30" gradientUnits="userSpaceOnUse">
<stop offset="0.259336" stop-color="#FFDB6E"/>
<stop offset="1" stop-color="#FFBC5E"/>
</linearGradient>
<linearGradient id="paint1_linear_gui" x1="5" y1="6" x2="37" y2="30" gradientUnits="userSpaceOnUse">
<stop offset="0.259336" stop-color="#FFDB6E"/>
<stop offset="1" stop-color="#FFBC5E"/>
</linearGradient>
<linearGradient id="paint2_linear_gui" x1="8" y1="10" x2="18" y2="13" gradientUnits="userSpaceOnUse">
<stop offset="0.259336" stop-color="#FFDB6E"/>
<stop offset="1" stop-color="#FFBC5E"/>
</linearGradient>
<linearGradient id="paint3_linear_gui" x1="8" y1="15" x2="34" y2="17" gradientUnits="userSpaceOnUse">
<stop offset="0.259336" stop-color="#FFDB6E"/>
<stop offset="1" stop-color="#FFBC5E"/>
</linearGradient>
<linearGradient id="paint4_linear_gui" x1="8" y1="19" x2="28" y2="21" gradientUnits="userSpaceOnUse">
<stop offset="0.259336" stop-color="#FFDB6E"/>
<stop offset="1" stop-color="#FFBC5E"/>
</linearGradient>
<linearGradient id="paint5_linear_gui" x1="8" y1="23" x2="16" y2="26" gradientUnits="userSpaceOnUse">
<stop offset="0.259336" stop-color="#FFDB6E"/>
<stop offset="1" stop-color="#FFBC5E"/>
</linearGradient>
<linearGradient id="paint6_linear_gui" x1="18" y1="30" x2="18" y2="35" gradientUnits="userSpaceOnUse">
<stop offset="0.259336" stop-color="#FFDB6E"/>
<stop offset="1" stop-color="#FFBC5E"/>
</linearGradient>
<linearGradient id="paint7_linear_gui" x1="24" y1="30" x2="24" y2="35" gradientUnits="userSpaceOnUse">
<stop offset="0.259336" stop-color="#FFDB6E"/>
<stop offset="1" stop-color="#FFBC5E"/>
</linearGradient>
<linearGradient id="paint8_linear_gui" x1="14" y1="35" x2="28" y2="35" gradientUnits="userSpaceOnUse">
<stop offset="0.259336" stop-color="#FFDB6E"/>
<stop offset="1" stop-color="#FFBC5E"/>
</linearGradient>
</defs>
</svg>
