<svg width="42" height="42" viewBox="0 0 42 42" fill="none" xmlns="http://www.w3.org/2000/svg">
<!-- Sensor/Signal Icon -->
<path opacity="0.15" fill-rule="evenodd" clip-rule="evenodd" d="M21 16C18.24 16 16 18.24 16 21C16 23.76 18.24 26 21 26C23.76 26 26 23.76 26 21C26 18.24 23.76 16 21 16Z" fill="url(#paint0_linear_sensor)"/>
<circle cx="21" cy="21" r="4" fill="url(#paint1_linear_sensor)" stroke="url(#paint2_linear_sensor)" stroke-width="0.5"/>
<path d="M13.5 28.5C11.5 26.5 10.2 23.9 10.2 21C10.2 18.1 11.5 15.5 13.5 13.5" stroke="url(#paint3_linear_sensor)" stroke-width="2" stroke-linecap="round"/>
<path d="M28.5 13.5C30.5 15.5 31.8 18.1 31.8 21C31.8 23.9 30.5 26.5 28.5 28.5" stroke="url(#paint4_linear_sensor)" stroke-width="2" stroke-linecap="round"/>
<path d="M8.5 33.5C5.3 30.3 3.2 25.9 3.2 21C3.2 16.1 5.3 11.7 8.5 8.5" stroke="url(#paint5_linear_sensor)" stroke-width="2" stroke-linecap="round"/>
<path d="M33.5 8.5C36.7 11.7 38.8 16.1 38.8 21C38.8 25.9 36.7 30.3 33.5 33.5" stroke="url(#paint6_linear_sensor)" stroke-width="2" stroke-linecap="round"/>
<defs>
<linearGradient id="paint0_linear_sensor" x1="16" y1="16" x2="26" y2="26" gradientUnits="userSpaceOnUse">
<stop offset="0.259336" stop-color="#FFDB6E"/>
<stop offset="1" stop-color="#FFBC5E"/>
</linearGradient>
<linearGradient id="paint1_linear_sensor" x1="17" y1="17" x2="25" y2="25" gradientUnits="userSpaceOnUse">
<stop offset="0.259336" stop-color="#FFDB6E"/>
<stop offset="1" stop-color="#FFBC5E"/>
</linearGradient>
<linearGradient id="paint2_linear_sensor" x1="17" y1="17" x2="25" y2="25" gradientUnits="userSpaceOnUse">
<stop offset="0.259336" stop-color="#FFDB6E"/>
<stop offset="1" stop-color="#FFBC5E"/>
</linearGradient>
<linearGradient id="paint3_linear_sensor" x1="10" y1="13" x2="14" y2="29" gradientUnits="userSpaceOnUse">
<stop offset="0.259336" stop-color="#FFDB6E"/>
<stop offset="1" stop-color="#FFBC5E"/>
</linearGradient>
<linearGradient id="paint4_linear_sensor" x1="28" y1="13" x2="32" y2="29" gradientUnits="userSpaceOnUse">
<stop offset="0.259336" stop-color="#FFDB6E"/>
<stop offset="1" stop-color="#FFBC5E"/>
</linearGradient>
<linearGradient id="paint5_linear_sensor" x1="3" y1="8" x2="9" y2="34" gradientUnits="userSpaceOnUse">
<stop offset="0.259336" stop-color="#FFDB6E"/>
<stop offset="1" stop-color="#FFBC5E"/>
</linearGradient>
<linearGradient id="paint6_linear_sensor" x1="33" y1="8" x2="39" y2="34" gradientUnits="userSpaceOnUse">
<stop offset="0.259336" stop-color="#FFDB6E"/>
<stop offset="1" stop-color="#FFBC5E"/>
</linearGradient>
</defs>
</svg>
